<?xml version="1.0" encoding="utf-8"?>
<!-- Generator: Adobe Illustrator 18.1.1, SVG Export Plug-In . SVG Version: 6.00 Build 0)  -->
<svg version="1.1" xmlns="http://www.w3.org/2000/svg" xmlns:xlink="http://www.w3.org/1999/xlink" x="0px" y="0px"
	 viewBox="0 0 16 16" enable-background="new 0 0 16 16" xml:space="preserve">
<g id="图层_1" display="none">
	<image display="inline" overflow="visible" width="16" height="16" xlink:href="注册-320px.png" >
	</image>
</g>
<g id="图层_2" display="none">
</g>
<g id="图层_3">
	<g>
		<path fill="#272636" d="M8,11.4c2.2,0,5.2-2.3,5.4-2.9C13.3,7.8,10.5,5.3,8,5.3c-2.4,0-5.4,2-5.4,3.2C2.7,9.1,5.6,11.4,8,11.4
			 M8,12c-2.5,0-6-2.4-6-3.5c0-1.8,3.5-3.8,6-3.8c2.7,0,6,2.7,6,3.8C14,9.4,10.4,12,8,12L8,12L8,12L8,12z M8,12"/>
		<path fill="#272636" d="M8,9.8C8.9,9.8,9.7,9,9.5,8C9.4,7.4,8.9,7,8.3,6.9c-1-0.2-1.8,0.5-1.8,1.5C6.5,9.2,7.2,9.8,8,9.8 M8,10.5
			c-1.3,0-2.3-1.2-2.1-2.5c0.2-0.8,0.8-1.5,1.6-1.7C8.9,6,10.1,7,10.1,8.3C10.1,9.5,9.2,10.5,8,10.5L8,10.5L8,10.5L8,10.5z M8,10.5"
			/>
	</g>
</g>
</svg>
