<?xml version="1.0" encoding="utf-8"?>
<!-- Generator: Adobe Illustrator 16.0.0, SVG Export Plug-In . SVG Version: 6.00 Build 0)  -->
<!DOCTYPE svg PUBLIC "-//W3C//DTD SVG 1.1//EN" "http://www.w3.org/Graphics/SVG/1.1/DTD/svg11.dtd">
<svg version="1.1" id="图层_1" xmlns="http://www.w3.org/2000/svg" xmlns:xlink="http://www.w3.org/1999/xlink" x="0px" y="0px"
	 width="32px" height="32px" viewBox="0 0 32 32" enable-background="new 0 0 32 32" xml:space="preserve">
<g>
	<polygon points="8.383,26.955 7.463,24.162 4.337,25.271 9.037,16.406 7.27,15.469 0.164,28.872 6.204,26.73 7.924,31.957 
		14.872,19.269 13.118,18.308 	"/>
	<polygon points="24.853,15.469 23.085,16.406 27.785,25.271 24.659,24.162 23.739,26.955 19.005,18.308 17.251,19.269 
		24.198,31.957 25.919,26.73 31.959,28.872 	"/>
	<path d="M12.9,17.668H19.1l4.75-3.985l1.076-6.106l-3.1-5.37L16,0.087l-5.826,2.12l-3.1,5.37l1.076,6.106L12.9,17.668z
		 M11.542,3.838L16,2.215l4.459,1.623l2.371,4.108l-0.824,4.672l-3.635,3.049h-4.743l-3.635-3.049L9.17,7.947L11.542,3.838z"/>
	<path d="M15.031,12.584h1.557V4.432h-1.263c-0.177,0.494-0.505,0.928-0.98,1.299c-0.477,0.37-0.918,0.622-1.324,0.756v1.412
		c0.772-0.255,1.442-0.647,2.011-1.18V12.584z"/>
</g>
</svg>
