<?xml version="1.0" encoding="utf-8"?>
<!-- Generator: Adobe Illustrator 16.0.0, SVG Export Plug-In . SVG Version: 6.00 Build 0)  -->
<!DOCTYPE svg PUBLIC "-//W3C//DTD SVG 1.1//EN" "http://www.w3.org/Graphics/SVG/1.1/DTD/svg11.dtd">
<svg version="1.1" id="图层_4" xmlns="http://www.w3.org/2000/svg" xmlns:xlink="http://www.w3.org/1999/xlink" x="0px" y="0px"
	 width="32px" height="32px" viewBox="0 0 32 32" enable-background="new 0 0 32 32" xml:space="preserve">
<g>
	<path d="M28.542,7L15.651,7.001c-0.036-0.006-0.112-0.039-0.122-0.044l-3.414-3.758C11.743,2.787,11.095,2.5,10.539,2.5H3.458
		c-0.827,0-1.5,0.673-1.5,1.5v23.993c0,0.827,0.673,1.5,1.5,1.5h25.083c0.827,0,1.5-0.673,1.5-1.5V8.5
		C30.042,7.672,29.369,7,28.542,7z M7.439,27.493l4.773-5.168l4.567,5.168H7.439z M18.455,27.493l3.627-3.296l2.703,3.296H18.455z
		 M28.042,27.493h-0.668l-5.081-6.19l-4.611,4.191l-5.437-6.151l-7.528,8.15H3.958V4.5l6.555-0.001
		c0.036,0.006,0.112,0.039,0.122,0.044l3.414,3.758C14.421,8.712,15.069,9,15.625,9h12.417V27.493z"/>
	<path d="M22,19c2.206,0,4-1.794,4-4c0-2.206-1.794-4-4-4s-4,1.794-4,4C18,17.206,19.794,19,22,19z M22,13c1.103,0,2,0.897,2,2
		s-0.897,2-2,2s-2-0.897-2-2S20.897,13,22,13z"/>
	<rect x="18" y="2.5" width="10" height="2"/>
</g>
</svg>
