<?xml version="1.0" encoding="utf-8"?>
<!-- Generator: Adobe Illustrator 16.0.0, SVG Export Plug-In . SVG Version: 6.00 Build 0)  -->
<!DOCTYPE svg PUBLIC "-//W3C//DTD SVG 1.1//EN" "http://www.w3.org/Graphics/SVG/1.1/DTD/svg11.dtd">
<svg version="1.1" id="图层_1" xmlns="http://www.w3.org/2000/svg" xmlns:xlink="http://www.w3.org/1999/xlink" x="0px" y="0px"
	 width="32px" height="32px" viewBox="0 0 32 32" enable-background="new 0 0 32 32" xml:space="preserve">
<g>
	<path d="M16.479,22.358c-0.15,0.424-0.295,0.925-0.438,1.504h-0.047c-0.068-0.465-0.2-0.962-0.391-1.49l-2.283-6.398h-3.281v10.589
		h2.037v-5.988c0-0.893-0.03-1.784-0.089-2.673h0.062c0.16,0.779,0.271,1.255,0.335,1.429l2.646,7.232h1.799l2.611-7.301
		c0.082-0.229,0.191-0.682,0.328-1.36h0.055c-0.061,0.897-0.09,1.644-0.09,2.235v6.426h2.229V15.974H18.77L16.479,22.358z"/>
	<path d="M28.406,8.835L28.08,8.476c-0.004-0.005-0.006-0.009-0.01-0.013L22.93,2.79l-1.896-2.093C20.842,0.487,20.332,0,19.729,0
		H4.5C3.673,0,3,0.672,3,1.5v29C3,31.326,3.673,32,4.5,32h23c0.828,0,1.5-0.674,1.5-1.5V10.376C29,9.853,28.754,9.218,28.406,8.835z
		 M20.959,3.593l4.785,5.283h-4.787L20.959,3.593z M27,30H5V2h13.957v6.877c0,1.103,0.896,2,2,2H27V30z"/>
	<rect x="8" y="6" width="6" height="2"/>
	<rect x="8" y="10" width="6" height="2"/>
</g>
</svg>
