<?xml version="1.0" encoding="utf-8"?>
<!-- Generator: Adobe Illustrator 16.0.0, SVG Export Plug-In . SVG Version: 6.00 Build 0)  -->
<!DOCTYPE svg PUBLIC "-//W3C//DTD SVG 1.1//EN" "http://www.w3.org/Graphics/SVG/1.1/DTD/svg11.dtd">
<svg version="1.1" id="图层_1" xmlns="http://www.w3.org/2000/svg" xmlns:xlink="http://www.w3.org/1999/xlink" x="0px" y="0px"
	 width="32px" height="32px" viewBox="0 0 32 32" enable-background="new 0 0 32 32" xml:space="preserve">
<path d="M18.712,15.717C21.79,14.603,24,11.658,24,8.2c0-4.411-3.589-8-8-8s-8,3.589-8,8c0,3.458,2.21,6.402,5.288,7.517
	C6.309,17.084,1,23.608,1,31.441C1,31.63,1.021,31.813,1.026,32h2C3.02,31.813,3,31.63,3,31.441c0-7.72,5.832-14,13-14
	c7.168,0,13,6.28,13,14c0,0.188-0.02,0.372-0.026,0.559h2C30.979,31.813,31,31.63,31,31.441C31,23.608,25.691,17.084,18.712,15.717z
	 M10,8.2c0-3.309,2.691-6,6-6s6,2.691,6,6s-2.691,6-6,6S10,11.509,10,8.2z"/>
</svg>
