<?xml version="1.0" encoding="utf-8"?>
<!-- Generator: Adobe Illustrator 19.0.0, SVG Export Plug-In . SVG Version: 6.00 Build 0)  -->
<svg version="1.1" id="图层_1" xmlns="http://www.w3.org/2000/svg" xmlns:xlink="http://www.w3.org/1999/xlink" x="0px" y="0px"
	 viewBox="0 0 34 34" style="enable-background:new 0 0 34 34;" xml:space="preserve">
<style type="text/css">
	.st0{fill-rule:evenodd;clip-rule:evenodd;fill:#040000;}
</style>
<path id="XMLID_2_" class="st0" d="M22.3,5.3c-0.8-1.5,0.9-2.2,1.9-1.6C24.1,5.2,22.7,4.5,22.3,5.3z M20.3,5.4
	c0.3-0.7,1.5-1.1,1.8,0.1C21.5,5.2,21,6.2,20.3,5.4z M20.9,13.2c-0.4,0-0.7-0.3-0.7-0.7c0-0.4,0.3-0.7,0.7-0.7
	c0.4,0,0.7,0.3,0.7,0.7c0,0.1,0,0.2,0,0.2c2.3,0,2.9-3.6,9.6-3.2c-3.4-5.7-10.3-4.7-12.4-0.7c-2.1,3.9-3.5,8.1-7.3,7.8
	c0.7,0,2.2-0.5,2.4-0.9c-3.7-3.5,1.2-5.3-0.1-10.6c-2,2.6-5.3,2.6-4.1,6.3C6.9,8.3,4.5,11.6,1.9,11c1.9,4,6.2,0.4,7.9,5.6
	c1.6,6.1,4.9,9.2,8.5,10.3c-1-2.3-1.4-3.8,0-7.4c-0.4,1.3-0.6,2.5-0.5,3.4c0,1.1,0.2,2,0.5,2.7c0.2,0.6,0.5,1,0.7,1.3
	c0.6,1,1.1,2,0.9,3.7c4.3-2.5,3.1-9.3,2.3-12.6c0.8,2.2,1.5,5.6,1,8.6c0.1,0,0.2-0.1,0.3-0.1c1.5-0.6,3-1.9,4-3.3c0,0-0.8-1.3-0.9-3
	c0.1,0.5,0.2,0.9,0.4,1.4c0.2,0.6,0.4,1,0.5,1.2c0.5,1,1,2.1,1.2,3.6c4.2-4,1.4-7.7,0.9-11c0-0.2,0.1-0.3,0.1-0.5
	c0.7-3,1.7-4.3,2.2-4.8c-7.6-0.4-7.4,3.2-10.4,2.9C21.4,12.9,21.1,13.2,20.9,13.2z"/>
</svg>
