<?xml version="1.0" encoding="utf-8"?>
<!-- Generator: Adobe Illustrator 18.1.1, SVG Export Plug-In . SVG Version: 6.00 Build 0)  -->
<svg version="1.1" id="图层_1" xmlns="http://www.w3.org/2000/svg" xmlns:xlink="http://www.w3.org/1999/xlink" x="0px" y="0px"
	 viewBox="0 0 60 60" enable-background="new 0 0 60 60" xml:space="preserve">
<g>
	<g>
		<path fill="none" d="M23.3,37.4l2.1,2c0,0,0.1,0,0.1,0l0.6-0.6c0,0,0-0.1,0-0.1l-2.1-2c0,0-0.1,0-0.1,0L23.3,37.4
			C23.3,37.3,23.3,37.3,23.3,37.4z"/>
		<path fill="none" d="M21.9,38.7C21.9,38.7,21.8,38.7,21.9,38.7l-0.7,0.6c0,0,0,0.1,0,0.1l2.1,2c0,0,0.1,0,0.1,0l0.6-0.6
			c0,0,0-0.1,0-0.1L21.9,38.7z"/>
		<path fill="none" d="M17.9,16.6c-0.4-0.4-1-0.4-1.4,0l-1.6,1.6c-0.4,0.4-0.4,1,0,1.4l2,1.9c0.4,0.4,1,0.4,1.4,0l1.6-1.6
			c0.4-0.4,0.4-1,0-1.4L17.9,16.6z"/>
		<path fill="none" d="M27.3,37.4C27.3,37.5,27.3,37.5,27.3,37.4l0.7-0.6c0,0,0-0.1,0-0.1l-2.1-2c0,0-0.1,0-0.1,0l-0.6,0.6
			c0,0,0,0.1,0,0.1L27.3,37.4z"/>
		<path fill="none" d="M42.1,41.3c-0.1-0.1-0.3-0.2-0.4,0l-1.9,2c-0.1,0.1-0.1,0.3,0.1,0.4l3.3,1c0.2,0.1,0.4-0.2,0.3-0.3L42.1,41.3
			z"/>
	</g>
	<g>
		<path fill="none" d="M17.9,16.6c-0.4-0.4-1-0.4-1.4,0l-1.6,1.6c-0.4,0.4-0.4,1,0,1.4l2,1.9c0.4,0.4,1,0.4,1.4,0l1.6-1.6
			c0.4-0.4,0.4-1,0-1.4L17.9,16.6z"/>
		<path fill="none" d="M23.3,37.4l2.1,2c0,0,0.1,0,0.1,0l0.6-0.6c0,0,0-0.1,0-0.1l-2.1-2c0,0-0.1,0-0.1,0L23.3,37.4
			C23.3,37.3,23.3,37.3,23.3,37.4z"/>
		<path fill="none" d="M42.1,41.3c-0.1-0.1-0.3-0.2-0.4,0l-1.9,2c-0.1,0.1-0.1,0.3,0.1,0.4l3.3,1c0.2,0.1,0.4-0.2,0.3-0.3L42.1,41.3
			z"/>
		<path fill="none" d="M27.3,37.4C27.3,37.5,27.3,37.5,27.3,37.4l0.7-0.6c0,0,0-0.1,0-0.1l-2.1-2c0,0-0.1,0-0.1,0l-0.6,0.6
			c0,0,0,0.1,0,0.1L27.3,37.4z"/>
		<path fill="none" d="M21.9,38.7C21.9,38.7,21.8,38.7,21.9,38.7l-0.7,0.6c0,0,0,0.1,0,0.1l2.1,2c0,0,0.1,0,0.1,0l0.6-0.6
			c0,0,0-0.1,0-0.1L21.9,38.7z"/>
		<path fill="none" d="M34.3,26.4C34.2,26.3,34.2,26.3,34.3,26.4l-0.6,0.6c0,0,0,0.1,0,0.1l2.1,2c0,0,0.1,0,0.1,0l0.5-0.6
			c0,0,0-0.1,0-0.1L34.3,26.4z"/>
		<rect x="17.3" y="41" transform="matrix(-0.7176 -0.6964 0.6964 -0.7176 4.985 85.1187)" fill="none" width="4.9" height="1.1"/>
		<path fill="none" d="M42.9,17.7C42.9,17.7,42.9,17.7,42.9,17.7l-0.7,0.6c0,0,0,0.1,0,0.1l2.1,2c0,0,0.1,0,0.1,0l0.6-0.6
			c0,0,0-0.1,0-0.1L42.9,17.7z"/>
		<path fill="none" d="M41.1,19.6C41,19.6,41,19.6,41.1,19.6l-0.6,0.6c0,0,0,0.1,0,0.1l2.1,2c0,0,0.1,0,0.1,0l0.6-0.6
			c0,0,0-0.1,0-0.1L41.1,19.6z"/>
		<path fill="none" d="M38.8,21.8C38.8,21.8,38.7,21.8,38.8,21.8l-0.7,0.6c0,0,0,0.1,0,0.1l2.1,2c0,0,0.1,0,0.1,0l0.6-0.6
			c0,0,0-0.1,0-0.1L38.8,21.8z"/>
		<path fill="#FFFFFF" d="M37.2,43l4-4.2c0.2-0.3,0.7-0.2,0.8,0.1l0.1,0.2c0-0.1-0.1-0.3-0.2-0.4L18.4,15.2c-0.4-0.4-1-0.4-1.4,0
			l-3.5,3.5c-0.4,0.4-0.4,1,0,1.4L37,43.6c0.1,0.1,0.1,0.1,0.2,0.1C37,43.5,37,43.2,37.2,43z M19.9,19.9l-1.6,1.6
			c-0.4,0.4-1,0.4-1.4,0l-2-1.9c-0.4-0.4-0.4-1,0-1.4l1.6-1.6c0.4-0.4,1-0.4,1.4,0l2,1.9C20.3,18.9,20.3,19.6,19.9,19.9z"/>
		<path fill="#FFFFFF" d="M42.1,39.1c0.1,0.4,0,0.8-0.2,1l-3.5,3.5c-0.3,0.3-0.8,0.4-1.2,0.1c0.1,0.1,0.1,0.1,0.2,0.2l7.1,2.1
			c0.4,0.1,0.8-0.3,0.6-0.7L42.1,39.1z M43.2,44.6l-3.3-1c-0.2,0-0.2-0.2-0.1-0.4l1.9-2c0.1-0.1,0.3-0.1,0.4,0l1.4,2.9
			C43.6,44.4,43.4,44.6,43.2,44.6z"/>
		<path fill="#FFFFFF" d="M38.4,43.6l3.5-3.5c0.3-0.3,0.3-0.7,0.2-1L42,38.9c-0.2-0.3-0.6-0.4-0.8-0.1l-4,4.2
			c-0.2,0.2-0.1,0.5,0,0.7C37.6,43.9,38.1,43.9,38.4,43.6z"/>
		<path fill="#FFFFFF" d="M15.4,39.2c-0.4,0.4-0.4,1.1,0,1.5l4.8,4.8c0.4,0.4,1.1,0.4,1.5,0l8-8.4l-6.3-6.2L15.4,39.2z M21.1,43.7
			l-3.5-3.4l0.8-0.8l3.5,3.4L21.1,43.7z M23.4,41.4C23.4,41.5,23.3,41.5,23.4,41.4l-2.1-2c0,0,0-0.1,0-0.1l0.6-0.6c0,0,0.1,0,0.1,0
			l2.1,2c0,0,0,0.1,0,0.1L23.4,41.4z M25.8,34.8C25.8,34.7,25.9,34.7,25.8,34.8l2.1,2c0,0,0,0.1,0,0.1l-0.6,0.6c0,0-0.1,0-0.1,0
			l-2.1-2c0,0,0-0.1,0-0.1L25.8,34.8z M24,36.6l2.1,2c0,0,0,0.1,0,0.1l-0.6,0.6c0,0-0.1,0-0.1,0l-2.1-2c0,0,0-0.1,0-0.1L24,36.6
			C23.9,36.6,24,36.6,24,36.6z"/>
		<path fill="#FFFFFF" d="M46.5,19.1l-4.8-4.8c-0.4-0.4-1.1-0.4-1.5,0l-11,10.9l6.3,6.2l11-10.9C46.9,20.2,46.9,19.5,46.5,19.1z
			 M35.8,29C35.8,29,35.7,29,35.8,29l-2.2-2c0,0,0-0.1,0-0.1l0.5-0.6c0,0,0.1,0,0.1,0l2.1,2c0,0,0,0.1,0,0.1L35.8,29z M38,26.8
			l-3.5-3.4l0.7-0.7l3.5,3.4L38,26.8z M40.3,24.5C40.3,24.5,40.2,24.5,40.3,24.5l-2.1-2c0,0,0-0.1,0-0.1l0.6-0.6c0,0,0.1,0,0.1,0
			l2.1,2c0,0,0,0.1,0,0.1L40.3,24.5z M42.6,22.2C42.5,22.3,42.5,22.3,42.6,22.2l-2.1-2c0,0,0-0.1,0-0.1l0.6-0.6c0,0,0.1,0,0.1,0
			l2.1,2c0,0,0,0.1,0,0.1L42.6,22.2z M44.4,20.4C44.4,20.4,44.4,20.4,44.4,20.4l-2.1-2c0,0,0-0.1,0-0.1l0.6-0.6c0,0,0.1,0,0.1,0
			l2.1,2c0,0,0,0.1,0,0.1L44.4,20.4z"/>
	</g>
</g>
</svg>
