<?xml version="1.0" encoding="utf-8"?>
<!-- Generator: Adobe Illustrator 18.1.1, SVG Export Plug-In . SVG Version: 6.00 Build 0)  -->
<svg version="1.1" id="图层_1" xmlns="http://www.w3.org/2000/svg" xmlns:xlink="http://www.w3.org/1999/xlink" x="0px" y="0px"
	 viewBox="0 0 60 60" enable-background="new 0 0 60 60" xml:space="preserve">
<g id="XMLID_59_">
	<g id="XMLID_58_">
		<path id="XMLID_54_" fill="#FFFFFF" d="M29.1,23.2c-0.2,0.2-0.5,0.3-0.8,0.4c-1.6,0.3-6.3,1.3-6.6,3c-0.1,0.7-0.3,1-0.5,1.2
			c-0.7,0.4-0.8,1.4-0.4,2c0.8,1.3,2.4,3.4,5.8,6.4c0.3,0.3,0.5,0.7,0.5,1.2c-0.1,1-0.8,2.5-4.1,3c-3.3,0.4-6.1,1.1-7.6,2.5
			c-2.8,2.5-0.3,2.5,1,2.5h27c1.4,0,3.7,0.5,0.9-2.6c-1.2-1.4-3.9-2.2-8.2-2.3c-9.2-0.3-1.4-4.5-1.4-4.5s2.2-0.9,5.1-6.6
			c0.3-0.6,0.2-1.3-0.4-1.8L38.9,27c-1.7-1.4-2.3-2.9-6.6-3.5c-0.3,0-0.6-0.2-0.9-0.4C31,22.8,30.2,22.2,29.1,23.2z"/>
		<path id="XMLID_55_" fill="none" stroke="#FFFFFF" stroke-miterlimit="10" d="M39.7,26.3h-19c-0.6,0-1.1-0.5-1.1-1.1v0
			c0-0.6,0.5-1.1,1.1-1.1h19c0.6,0,1.1,0.5,1.1,1.1v0C40.8,25.8,40.3,26.3,39.7,26.3z"/>
		<path id="XMLID_56_" fill="none" stroke="#FFFFFF" stroke-miterlimit="10" d="M30.1,35L30.1,35c-4.3,0-7.8-3.5-7.8-7.8v-3
			c0-4.3,3.5-7.8,7.8-7.8h0c4.3,0,7.8,3.5,7.8,7.8v3C37.9,31.5,34.4,35,30.1,35z"/>
		<path id="XMLID_57_" fill="#FFFFFF" d="M31.5,21.6H29c-0.4,0-0.8-0.4-0.8-0.8v-5.4c0-0.4,0.4-0.8,0.8-0.8h2.5
			c0.4,0,0.8,0.4,0.8,0.8v5.4C32.3,21.3,32,21.6,31.5,21.6z"/>
	</g>
</g>
</svg>
