<?xml version="1.0" encoding="utf-8"?>
<!-- Generator: Adobe Illustrator 18.1.1, SVG Export Plug-In . SVG Version: 6.00 Build 0)  -->
<svg version="1.1" id="图层_1" xmlns="http://www.w3.org/2000/svg" xmlns:xlink="http://www.w3.org/1999/xlink" x="0px" y="0px"
	 viewBox="0 0 60 60" enable-background="new 0 0 60 60" xml:space="preserve">
<g id="XMLID_60_">
	<g id="XMLID_50_">
		<path id="XMLID_47_" fill="#FFFFFF" d="M41.4,14.2C41.4,14.2,41.4,14.2,41.4,14.2c0,0-0.7,2.5-12.1,6.1c-15.8,5-7.4,15.7-5,18.2
			c2.4,2.5,2.6,0.9,2.6,0.9c2.4-1.3,9-7.2,12.9-16.6L41.4,14.2z"/>
		<path id="XMLID_45_" fill="#FFFFFF" d="M28.8,41.5c0,0,9.2-8.6,9.6-16.3l3-11c0,0,8.6,27.4-4.7,29.7C36.7,44,31.6,45.7,28.8,41.5z
			"/>
		<path id="XMLID_49_" fill="#FFFFFF" d="M18.9,43.2l-2,0c-0.7,0-1.2,0.6-1.1,1.2c0.1,0.8,0.6,1.7,2.4,1.2
			c3.1-0.8,13.8-8.1,18.2-16.7c1.4-2.7-3.1,8.5-17.1,14.2C19.2,43.2,19.1,43.2,18.9,43.2z"/>
	</g>
</g>
</svg>
