<?xml version="1.0" encoding="utf-8"?>
<!-- Generator: Adobe Illustrator 18.1.1, SVG Export Plug-In . SVG Version: 6.00 Build 0)  -->
<svg version="1.1" id="图层_1" xmlns="http://www.w3.org/2000/svg" xmlns:xlink="http://www.w3.org/1999/xlink" x="0px" y="0px"
	 viewBox="0 0 60 60" enable-background="new 0 0 60 60" xml:space="preserve">
<g id="XMLID_44_">
	<g id="XMLID_43_">
		<path id="XMLID_40_" fill="#FFFFFF" d="M34.7,34.9c-0.7,0.7-1.5,1.3-2.3,1.8c-0.2,0.1-0.2,0.4-0.1,0.6l8,8c1,1,2.7,1,3.7,0
			l1.1-1.1c1-1,1-2.7,0-3.7l-8-8c-0.2-0.2-0.5-0.2-0.6,0.1C36,33.4,35.4,34.2,34.7,34.9"/>
		<g id="XMLID_42_">
			<path id="XMLID_41_" fill="none" stroke="#FFFFFF" stroke-width="2.5" stroke-miterlimit="10" d="M25.1,13.8c-6.1,0-11,4.9-11,11
				c0,6.1,4.9,11,11,11c6.1,0,11-4.9,11-11C36,18.8,31.1,13.8,25.1,13.8L25.1,13.8z"/>
			<path id="XMLID_39_" fill="#FFFFFF" d="M23.2,17.4c-3.3,0.9-4.5,2.7-5.5,6.1c-0.4,1.2,1.5,1.7,1.9,0.5c0.9-3,1.6-4,4.6-4.9
				C25.3,18.7,24.3,16.9,23.2,17.4"/>
		</g>
	</g>
</g>
</svg>
